<svg width="112" height="110" viewBox="0 0 112 110" fill="none" xmlns="http://www.w3.org/2000/svg">
<path d="M55.9998 0.166504C48.6677 0.166504 41.4074 1.61068 34.6333 4.41656C27.8593 7.22245 21.7043 11.3351 16.5197 16.5197C6.04893 26.9905 0.166504 41.1919 0.166504 55.9998C0.166504 80.6782 16.1907 101.616 38.3565 109.042C41.1482 109.488 42.0415 107.757 42.0415 106.25V96.814C26.5757 100.164 23.2815 89.3323 23.2815 89.3323C20.7132 82.8557 17.084 81.1248 17.084 81.1248C12.0032 77.6632 17.4748 77.7748 17.4748 77.7748C23.0582 78.1657 26.0173 83.5257 26.0173 83.5257C30.8748 92.0123 39.0823 89.4998 42.2648 88.1598C42.7673 84.5307 44.219 82.074 45.7823 80.6782C33.3873 79.2823 20.3782 74.4807 20.3782 53.2082C20.3782 47.0107 22.4998 42.0415 26.129 38.0773C25.5707 36.6815 23.6165 30.8748 26.6873 23.3373C26.6873 23.3373 31.3773 21.8298 42.0415 29.0323C46.4523 27.804 51.254 27.1898 55.9998 27.1898C60.7457 27.1898 65.5473 27.804 69.9582 29.0323C80.6223 21.8298 85.3123 23.3373 85.3123 23.3373C88.3832 30.8748 86.429 36.6815 85.8707 38.0773C89.4998 42.0415 91.6215 47.0107 91.6215 53.2082C91.6215 74.5365 78.5565 79.2265 66.1057 80.6223C68.1157 82.3532 69.9582 85.759 69.9582 90.9515V106.25C69.9582 107.757 70.8515 109.544 73.699 109.042C95.8648 101.56 111.833 80.6782 111.833 55.9998C111.833 48.6677 110.389 41.4074 107.583 34.6333C104.777 27.8593 100.665 21.7043 95.48 16.5197C90.2954 11.3351 84.1403 7.22245 77.3663 4.41656C70.5923 1.61068 63.332 0.166504 55.9998 0.166504Z" fill="white"/>
</svg>
