<svg width="109" height="109" viewBox="0 0 109 109" fill="none" xmlns="http://www.w3.org/2000/svg">
<path d="M96.7917 0.125C99.9964 0.125 103.07 1.39806 105.336 3.66413C107.602 5.93019 108.875 9.00363 108.875 12.2083V96.7917C108.875 99.9964 107.602 103.07 105.336 105.336C103.07 107.602 99.9964 108.875 96.7917 108.875H12.2083C9.00363 108.875 5.93019 107.602 3.66413 105.336C1.39806 103.07 0.125 99.9964 0.125 96.7917V12.2083C0.125 9.00363 1.39806 5.93019 3.66413 3.66413C5.93019 1.39806 9.00363 0.125 12.2083 0.125H96.7917ZM93.7708 93.7708V61.75C93.7708 56.5263 91.6957 51.5166 88.0021 47.8229C84.3084 44.1293 79.2987 42.0542 74.075 42.0542C68.9396 42.0542 62.9583 45.1958 60.0583 49.9083V43.2021H43.2021V93.7708H60.0583V63.9854C60.0583 59.3333 63.8042 55.5271 68.4563 55.5271C70.6995 55.5271 72.8509 56.4182 74.4372 58.0045C76.0234 59.5907 76.9146 61.7421 76.9146 63.9854V93.7708H93.7708ZM23.5667 33.7167C26.2586 33.7167 28.8403 32.6473 30.7438 30.7438C32.6473 28.8403 33.7167 26.2586 33.7167 23.5667C33.7167 17.9479 29.1854 13.3562 23.5667 13.3562C20.8587 13.3562 18.2616 14.432 16.3468 16.3468C14.432 18.2616 13.3562 20.8587 13.3562 23.5667C13.3562 29.1854 17.9479 33.7167 23.5667 33.7167ZM31.9646 93.7708V43.2021H15.2292V93.7708H31.9646Z" fill="white"/>
</svg>
