<svg width="127" height="103" viewBox="0 0 127 103" fill="none" xmlns="http://www.w3.org/2000/svg">
<path d="M126.392 12.0833C121.74 14.1979 116.725 15.5875 111.529 16.2521C116.846 13.05 120.954 7.975 122.887 1.87292C117.873 4.89375 112.315 7.00833 106.454 8.21667C101.681 3.02083 94.975 0 87.3625 0C73.1646 0 61.5646 11.6 61.5646 25.9188C61.5646 27.9729 61.8062 29.9667 62.2292 31.8396C40.7208 30.7521 21.5687 20.4208 8.82083 4.77292C6.58542 8.57917 5.31667 13.05 5.31667 17.7625C5.31667 26.7646 9.84792 34.7396 16.8562 39.2708C12.5667 39.2708 8.57917 38.0625 5.075 36.25V36.4313C5.075 48.9979 14.0167 59.5104 25.8583 61.8667C22.0565 62.9071 18.0652 63.0519 14.1979 62.2896C15.8389 67.44 19.0526 71.9466 23.3874 75.176C27.7222 78.4054 32.96 80.1952 38.3646 80.2938C29.2032 87.5464 17.8471 91.4667 6.1625 91.4104C4.10833 91.4104 2.05417 91.2896 0 91.0479C11.4792 98.4188 25.1333 102.708 39.7542 102.708C87.3625 102.708 113.523 63.1958 113.523 28.9396C113.523 27.7917 113.523 26.7042 113.462 25.5562C118.537 21.9312 122.887 17.3396 126.392 12.0833Z" fill="white"/>
</svg>
